<mxfile host="app.diagrams.net" agent="Mozilla/5.0 (Windows NT 10.0; Win64; x64) AppleWebKit/537.36 (KHTML, like Gecko) Chrome/130.0.0.0 Safari/537.36" version="24.8.3" pages="3">
  <diagram id="C5RBs43oDa-KdzZeNtuy" name="Page-1">
    <mxGraphModel dx="3187" dy="1642" grid="1" gridSize="10" guides="1" tooltips="1" connect="1" arrows="1" fold="1" page="1" pageScale="1" pageWidth="827" pageHeight="1169" math="0" shadow="0">
      <root>
        <mxCell id="WIyWlLk6GJQsqaUBKTNV-0" />
        <mxCell id="WIyWlLk6GJQsqaUBKTNV-1" parent="WIyWlLk6GJQsqaUBKTNV-0" />
        <mxCell id="zkfFHV4jXpPFQw0GAbJ--0" value="USER" style="swimlane;fontStyle=2;align=center;verticalAlign=top;childLayout=stackLayout;horizontal=1;startSize=26;horizontalStack=0;resizeParent=1;resizeLast=0;collapsible=1;marginBottom=0;rounded=0;shadow=0;strokeWidth=1;" parent="WIyWlLk6GJQsqaUBKTNV-1" vertex="1">
          <mxGeometry x="330" y="320" width="160" height="500" as="geometry">
            <mxRectangle x="230" y="140" width="160" height="26" as="alternateBounds" />
          </mxGeometry>
        </mxCell>
        <mxCell id="zkfFHV4jXpPFQw0GAbJ--1" value="id (int)" style="text;align=left;verticalAlign=top;spacingLeft=4;spacingRight=4;overflow=hidden;rotatable=0;points=[[0,0.5],[1,0.5]];portConstraint=eastwest;" parent="zkfFHV4jXpPFQw0GAbJ--0" vertex="1">
          <mxGeometry y="26" width="160" height="26" as="geometry" />
        </mxCell>
        <mxCell id="zkfFHV4jXpPFQw0GAbJ--2" value="lastName (varchar)" style="text;align=left;verticalAlign=top;spacingLeft=4;spacingRight=4;overflow=hidden;rotatable=0;points=[[0,0.5],[1,0.5]];portConstraint=eastwest;rounded=0;shadow=0;html=0;" parent="zkfFHV4jXpPFQw0GAbJ--0" vertex="1">
          <mxGeometry y="52" width="160" height="26" as="geometry" />
        </mxCell>
        <mxCell id="zkfFHV4jXpPFQw0GAbJ--3" value="firstName (varchar)" style="text;align=left;verticalAlign=top;spacingLeft=4;spacingRight=4;overflow=hidden;rotatable=0;points=[[0,0.5],[1,0.5]];portConstraint=eastwest;rounded=0;shadow=0;html=0;" parent="zkfFHV4jXpPFQw0GAbJ--0" vertex="1">
          <mxGeometry y="78" width="160" height="26" as="geometry" />
        </mxCell>
        <mxCell id="zkfFHV4jXpPFQw0GAbJ--5" value="email (varchar)" style="text;align=left;verticalAlign=top;spacingLeft=4;spacingRight=4;overflow=hidden;rotatable=0;points=[[0,0.5],[1,0.5]];portConstraint=eastwest;" parent="zkfFHV4jXpPFQw0GAbJ--0" vertex="1">
          <mxGeometry y="104" width="160" height="26" as="geometry" />
        </mxCell>
        <mxCell id="frQt0z7kCmQg0s9N4Y5u-1" value="password (varchar)" style="text;align=left;verticalAlign=top;spacingLeft=4;spacingRight=4;overflow=hidden;rotatable=0;points=[[0,0.5],[1,0.5]];portConstraint=eastwest;rounded=0;shadow=0;html=0;" vertex="1" parent="zkfFHV4jXpPFQw0GAbJ--0">
          <mxGeometry y="130" width="160" height="26" as="geometry" />
        </mxCell>
        <mxCell id="frQt0z7kCmQg0s9N4Y5u-3" value="birthDate (Date)" style="text;align=left;verticalAlign=top;spacingLeft=4;spacingRight=4;overflow=hidden;rotatable=0;points=[[0,0.5],[1,0.5]];portConstraint=eastwest;rounded=0;shadow=0;html=0;" vertex="1" parent="zkfFHV4jXpPFQw0GAbJ--0">
          <mxGeometry y="156" width="160" height="26" as="geometry" />
        </mxCell>
        <mxCell id="frQt0z7kCmQg0s9N4Y5u-2" value="city (varchar)" style="text;align=left;verticalAlign=top;spacingLeft=4;spacingRight=4;overflow=hidden;rotatable=0;points=[[0,0.5],[1,0.5]];portConstraint=eastwest;rounded=0;shadow=0;html=0;" vertex="1" parent="zkfFHV4jXpPFQw0GAbJ--0">
          <mxGeometry y="182" width="160" height="26" as="geometry" />
        </mxCell>
        <mxCell id="frQt0z7kCmQg0s9N4Y5u-52" value="country (varchar)" style="text;align=left;verticalAlign=top;spacingLeft=4;spacingRight=4;overflow=hidden;rotatable=0;points=[[0,0.5],[1,0.5]];portConstraint=eastwest;rounded=0;shadow=0;html=0;" vertex="1" parent="zkfFHV4jXpPFQw0GAbJ--0">
          <mxGeometry y="208" width="160" height="26" as="geometry" />
        </mxCell>
        <mxCell id="frQt0z7kCmQg0s9N4Y5u-4" value="bio (text)" style="text;align=left;verticalAlign=top;spacingLeft=4;spacingRight=4;overflow=hidden;rotatable=0;points=[[0,0.5],[1,0.5]];portConstraint=eastwest;rounded=0;shadow=0;html=0;" vertex="1" parent="zkfFHV4jXpPFQw0GAbJ--0">
          <mxGeometry y="234" width="160" height="26" as="geometry" />
        </mxCell>
        <mxCell id="frQt0z7kCmQg0s9N4Y5u-26" value="phoneNumber (varchar)" style="text;align=left;verticalAlign=top;spacingLeft=4;spacingRight=4;overflow=hidden;rotatable=0;points=[[0,0.5],[1,0.5]];portConstraint=eastwest;rounded=0;shadow=0;html=0;" vertex="1" parent="zkfFHV4jXpPFQw0GAbJ--0">
          <mxGeometry y="260" width="160" height="26" as="geometry" />
        </mxCell>
        <mxCell id="frQt0z7kCmQg0s9N4Y5u-0" value="photo (varchar)" style="text;align=left;verticalAlign=top;spacingLeft=4;spacingRight=4;overflow=hidden;rotatable=0;points=[[0,0.5],[1,0.5]];portConstraint=eastwest;rounded=0;shadow=0;html=0;" vertex="1" parent="zkfFHV4jXpPFQw0GAbJ--0">
          <mxGeometry y="286" width="160" height="26" as="geometry" />
        </mxCell>
        <mxCell id="frQt0z7kCmQg0s9N4Y5u-54" value="createdAt (date)" style="text;align=left;verticalAlign=top;spacingLeft=4;spacingRight=4;overflow=hidden;rotatable=0;points=[[0,0.5],[1,0.5]];portConstraint=eastwest;rounded=0;shadow=0;html=0;" vertex="1" parent="zkfFHV4jXpPFQw0GAbJ--0">
          <mxGeometry y="312" width="160" height="26" as="geometry" />
        </mxCell>
        <mxCell id="frQt0z7kCmQg0s9N4Y5u-55" value="updatedAt (date)" style="text;align=left;verticalAlign=top;spacingLeft=4;spacingRight=4;overflow=hidden;rotatable=0;points=[[0,0.5],[1,0.5]];portConstraint=eastwest;rounded=0;shadow=0;html=0;" vertex="1" parent="zkfFHV4jXpPFQw0GAbJ--0">
          <mxGeometry y="338" width="160" height="26" as="geometry" />
        </mxCell>
        <mxCell id="frQt0z7kCmQg0s9N4Y5u-53" value="deletedAt (date)" style="text;align=left;verticalAlign=top;spacingLeft=4;spacingRight=4;overflow=hidden;rotatable=0;points=[[0,0.5],[1,0.5]];portConstraint=eastwest;rounded=0;shadow=0;html=0;" vertex="1" parent="zkfFHV4jXpPFQw0GAbJ--0">
          <mxGeometry y="364" width="160" height="26" as="geometry" />
        </mxCell>
        <mxCell id="frQt0z7kCmQg0s9N4Y5u-57" value="isOrganizer (boolean)" style="text;align=left;verticalAlign=top;spacingLeft=4;spacingRight=4;overflow=hidden;rotatable=0;points=[[0,0.5],[1,0.5]];portConstraint=eastwest;rounded=0;shadow=0;html=0;" vertex="1" parent="zkfFHV4jXpPFQw0GAbJ--0">
          <mxGeometry y="390" width="160" height="26" as="geometry" />
        </mxCell>
        <mxCell id="frQt0z7kCmQg0s9N4Y5u-60" value="level (int)" style="text;align=left;verticalAlign=top;spacingLeft=4;spacingRight=4;overflow=hidden;rotatable=0;points=[[0,0.5],[1,0.5]];portConstraint=eastwest;rounded=0;shadow=0;html=0;" vertex="1" parent="zkfFHV4jXpPFQw0GAbJ--0">
          <mxGeometry y="416" width="160" height="26" as="geometry" />
        </mxCell>
        <mxCell id="frQt0z7kCmQg0s9N4Y5u-58" value="experiencePoints (int)" style="text;align=left;verticalAlign=top;spacingLeft=4;spacingRight=4;overflow=hidden;rotatable=0;points=[[0,0.5],[1,0.5]];portConstraint=eastwest;rounded=0;shadow=0;html=0;" vertex="1" parent="zkfFHV4jXpPFQw0GAbJ--0">
          <mxGeometry y="442" width="160" height="26" as="geometry" />
        </mxCell>
        <mxCell id="zkfFHV4jXpPFQw0GAbJ--4" value="" style="line;html=1;strokeWidth=1;align=left;verticalAlign=middle;spacingTop=-1;spacingLeft=3;spacingRight=3;rotatable=0;labelPosition=right;points=[];portConstraint=eastwest;" parent="zkfFHV4jXpPFQw0GAbJ--0" vertex="1">
          <mxGeometry y="468" width="160" height="12" as="geometry" />
        </mxCell>
        <mxCell id="mFLtXefzZM77wNrUsiu5-21" style="edgeStyle=orthogonalEdgeStyle;rounded=0;orthogonalLoop=1;jettySize=auto;html=1;exitX=1;exitY=0.5;exitDx=0;exitDy=0;entryX=-0.001;entryY=0.754;entryDx=0;entryDy=0;entryPerimeter=0;curved=1;" edge="1" parent="WIyWlLk6GJQsqaUBKTNV-1" source="zkfFHV4jXpPFQw0GAbJ--22" target="frQt0z7kCmQg0s9N4Y5u-21">
          <mxGeometry relative="1" as="geometry">
            <mxPoint x="1130" y="720" as="targetPoint" />
          </mxGeometry>
        </mxCell>
        <mxCell id="mFLtXefzZM77wNrUsiu5-22" value="AVOIR" style="edgeLabel;html=1;align=center;verticalAlign=middle;resizable=0;points=[];" vertex="1" connectable="0" parent="mFLtXefzZM77wNrUsiu5-21">
          <mxGeometry x="0.056" relative="1" as="geometry">
            <mxPoint as="offset" />
          </mxGeometry>
        </mxCell>
        <mxCell id="zkfFHV4jXpPFQw0GAbJ--17" value="Event" style="swimlane;fontStyle=0;align=center;verticalAlign=top;childLayout=stackLayout;horizontal=1;startSize=26;horizontalStack=0;resizeParent=1;resizeLast=0;collapsible=1;marginBottom=0;rounded=0;shadow=0;strokeWidth=1;" parent="WIyWlLk6GJQsqaUBKTNV-1" vertex="1">
          <mxGeometry x="850" y="320" width="160" height="346" as="geometry">
            <mxRectangle x="550" y="140" width="160" height="26" as="alternateBounds" />
          </mxGeometry>
        </mxCell>
        <mxCell id="zkfFHV4jXpPFQw0GAbJ--18" value="id (int)" style="text;align=left;verticalAlign=top;spacingLeft=4;spacingRight=4;overflow=hidden;rotatable=0;points=[[0,0.5],[1,0.5]];portConstraint=eastwest;" parent="zkfFHV4jXpPFQw0GAbJ--17" vertex="1">
          <mxGeometry y="26" width="160" height="26" as="geometry" />
        </mxCell>
        <mxCell id="zkfFHV4jXpPFQw0GAbJ--19" value="title (varchar)" style="text;align=left;verticalAlign=top;spacingLeft=4;spacingRight=4;overflow=hidden;rotatable=0;points=[[0,0.5],[1,0.5]];portConstraint=eastwest;rounded=0;shadow=0;html=0;" parent="zkfFHV4jXpPFQw0GAbJ--17" vertex="1">
          <mxGeometry y="52" width="160" height="26" as="geometry" />
        </mxCell>
        <mxCell id="frQt0z7kCmQg0s9N4Y5u-5" value="description (text)" style="text;align=left;verticalAlign=top;spacingLeft=4;spacingRight=4;overflow=hidden;rotatable=0;points=[[0,0.5],[1,0.5]];portConstraint=eastwest;rounded=0;shadow=0;html=0;" vertex="1" parent="zkfFHV4jXpPFQw0GAbJ--17">
          <mxGeometry y="78" width="160" height="26" as="geometry" />
        </mxCell>
        <mxCell id="frQt0z7kCmQg0s9N4Y5u-6" value="dateEvent (dateTime)" style="text;align=left;verticalAlign=top;spacingLeft=4;spacingRight=4;overflow=hidden;rotatable=0;points=[[0,0.5],[1,0.5]];portConstraint=eastwest;rounded=0;shadow=0;html=0;" vertex="1" parent="zkfFHV4jXpPFQw0GAbJ--17">
          <mxGeometry y="104" width="160" height="26" as="geometry" />
        </mxCell>
        <mxCell id="frQt0z7kCmQg0s9N4Y5u-8" value="maxParticipants (int)" style="text;align=left;verticalAlign=top;spacingLeft=4;spacingRight=4;overflow=hidden;rotatable=0;points=[[0,0.5],[1,0.5]];portConstraint=eastwest;rounded=0;shadow=0;html=0;" vertex="1" parent="zkfFHV4jXpPFQw0GAbJ--17">
          <mxGeometry y="130" width="160" height="26" as="geometry" />
        </mxCell>
        <mxCell id="frQt0z7kCmQg0s9N4Y5u-50" value="registeredParticipants (int)" style="text;align=left;verticalAlign=top;spacingLeft=4;spacingRight=4;overflow=hidden;rotatable=0;points=[[0,0.5],[1,0.5]];portConstraint=eastwest;rounded=0;shadow=0;html=0;" vertex="1" parent="zkfFHV4jXpPFQw0GAbJ--17">
          <mxGeometry y="156" width="160" height="26" as="geometry" />
        </mxCell>
        <mxCell id="zkfFHV4jXpPFQw0GAbJ--21" value="price (float)" style="text;align=left;verticalAlign=top;spacingLeft=4;spacingRight=4;overflow=hidden;rotatable=0;points=[[0,0.5],[1,0.5]];portConstraint=eastwest;rounded=0;shadow=0;html=0;" parent="zkfFHV4jXpPFQw0GAbJ--17" vertex="1">
          <mxGeometry y="182" width="160" height="26" as="geometry" />
        </mxCell>
        <mxCell id="frQt0z7kCmQg0s9N4Y5u-25" value="isComplete (boolean)" style="text;align=left;verticalAlign=top;spacingLeft=4;spacingRight=4;overflow=hidden;rotatable=0;points=[[0,0.5],[1,0.5]];portConstraint=eastwest;rounded=0;shadow=0;html=0;" vertex="1" parent="zkfFHV4jXpPFQw0GAbJ--17">
          <mxGeometry y="208" width="160" height="26" as="geometry" />
        </mxCell>
        <mxCell id="zkfFHV4jXpPFQw0GAbJ--22" value="status (enum)" style="text;align=left;verticalAlign=top;spacingLeft=4;spacingRight=4;overflow=hidden;rotatable=0;points=[[0,0.5],[1,0.5]];portConstraint=eastwest;rounded=0;shadow=0;html=0;" parent="zkfFHV4jXpPFQw0GAbJ--17" vertex="1">
          <mxGeometry y="234" width="160" height="26" as="geometry" />
        </mxCell>
        <mxCell id="frQt0z7kCmQg0s9N4Y5u-61" value="rewardPoints (int)" style="text;align=left;verticalAlign=top;spacingLeft=4;spacingRight=4;overflow=hidden;rotatable=0;points=[[0,0.5],[1,0.5]];portConstraint=eastwest;rounded=0;shadow=0;html=0;" vertex="1" parent="zkfFHV4jXpPFQw0GAbJ--17">
          <mxGeometry y="260" width="160" height="26" as="geometry" />
        </mxCell>
        <mxCell id="zkfFHV4jXpPFQw0GAbJ--23" value="" style="line;html=1;strokeWidth=1;align=left;verticalAlign=middle;spacingTop=-1;spacingLeft=3;spacingRight=3;rotatable=0;labelPosition=right;points=[];portConstraint=eastwest;" parent="zkfFHV4jXpPFQw0GAbJ--17" vertex="1">
          <mxGeometry y="286" width="160" height="8" as="geometry" />
        </mxCell>
        <mxCell id="zkfFHV4jXpPFQw0GAbJ--26" value="" style="endArrow=open;shadow=0;strokeWidth=1;rounded=0;curved=0;endFill=1;edgeStyle=elbowEdgeStyle;elbow=vertical;" parent="WIyWlLk6GJQsqaUBKTNV-1" source="zkfFHV4jXpPFQw0GAbJ--0" target="zkfFHV4jXpPFQw0GAbJ--17" edge="1">
          <mxGeometry x="0.5" y="41" relative="1" as="geometry">
            <mxPoint x="650" y="502" as="sourcePoint" />
            <mxPoint x="810" y="502" as="targetPoint" />
            <mxPoint x="-40" y="32" as="offset" />
          </mxGeometry>
        </mxCell>
        <mxCell id="zkfFHV4jXpPFQw0GAbJ--27" value="1" style="resizable=0;align=left;verticalAlign=bottom;labelBackgroundColor=none;fontSize=12;" parent="zkfFHV4jXpPFQw0GAbJ--26" connectable="0" vertex="1">
          <mxGeometry x="-1" relative="1" as="geometry">
            <mxPoint y="4" as="offset" />
          </mxGeometry>
        </mxCell>
        <mxCell id="zkfFHV4jXpPFQw0GAbJ--28" value="*" style="resizable=0;align=right;verticalAlign=bottom;labelBackgroundColor=none;fontSize=12;" parent="zkfFHV4jXpPFQw0GAbJ--26" connectable="0" vertex="1">
          <mxGeometry x="1" relative="1" as="geometry">
            <mxPoint x="-7" y="4" as="offset" />
          </mxGeometry>
        </mxCell>
        <mxCell id="mFLtXefzZM77wNrUsiu5-12" value="ORGANISER" style="edgeLabel;html=1;align=center;verticalAlign=middle;resizable=0;points=[];" vertex="1" connectable="0" parent="zkfFHV4jXpPFQw0GAbJ--26">
          <mxGeometry x="-0.0944" y="3" relative="1" as="geometry">
            <mxPoint as="offset" />
          </mxGeometry>
        </mxCell>
        <mxCell id="frQt0z7kCmQg0s9N4Y5u-9" value="Location" style="swimlane;fontStyle=0;align=center;verticalAlign=top;childLayout=stackLayout;horizontal=1;startSize=26;horizontalStack=0;resizeParent=1;resizeLast=0;collapsible=1;marginBottom=0;rounded=0;shadow=0;strokeWidth=1;" vertex="1" parent="WIyWlLk6GJQsqaUBKTNV-1">
          <mxGeometry x="1120" y="200" width="160" height="220" as="geometry">
            <mxRectangle x="340" y="380" width="170" height="26" as="alternateBounds" />
          </mxGeometry>
        </mxCell>
        <mxCell id="frQt0z7kCmQg0s9N4Y5u-10" value="id (int)" style="text;align=left;verticalAlign=top;spacingLeft=4;spacingRight=4;overflow=hidden;rotatable=0;points=[[0,0.5],[1,0.5]];portConstraint=eastwest;" vertex="1" parent="frQt0z7kCmQg0s9N4Y5u-9">
          <mxGeometry y="26" width="160" height="26" as="geometry" />
        </mxCell>
        <mxCell id="frQt0z7kCmQg0s9N4Y5u-17" value="name (varchar)" style="text;align=left;verticalAlign=top;spacingLeft=4;spacingRight=4;overflow=hidden;rotatable=0;points=[[0,0.5],[1,0.5]];portConstraint=eastwest;" vertex="1" parent="frQt0z7kCmQg0s9N4Y5u-9">
          <mxGeometry y="52" width="160" height="26" as="geometry" />
        </mxCell>
        <mxCell id="frQt0z7kCmQg0s9N4Y5u-18" value="address (varchar)" style="text;align=left;verticalAlign=top;spacingLeft=4;spacingRight=4;overflow=hidden;rotatable=0;points=[[0,0.5],[1,0.5]];portConstraint=eastwest;" vertex="1" parent="frQt0z7kCmQg0s9N4Y5u-9">
          <mxGeometry y="78" width="160" height="26" as="geometry" />
        </mxCell>
        <mxCell id="frQt0z7kCmQg0s9N4Y5u-16" value="zipCode (varchar)" style="text;align=left;verticalAlign=top;spacingLeft=4;spacingRight=4;overflow=hidden;rotatable=0;points=[[0,0.5],[1,0.5]];portConstraint=eastwest;" vertex="1" parent="frQt0z7kCmQg0s9N4Y5u-9">
          <mxGeometry y="104" width="160" height="26" as="geometry" />
        </mxCell>
        <mxCell id="frQt0z7kCmQg0s9N4Y5u-15" value="city (varchar)" style="text;align=left;verticalAlign=top;spacingLeft=4;spacingRight=4;overflow=hidden;rotatable=0;points=[[0,0.5],[1,0.5]];portConstraint=eastwest;" vertex="1" parent="frQt0z7kCmQg0s9N4Y5u-9">
          <mxGeometry y="130" width="160" height="26" as="geometry" />
        </mxCell>
        <mxCell id="frQt0z7kCmQg0s9N4Y5u-19" value="country (varchar)" style="text;align=left;verticalAlign=top;spacingLeft=4;spacingRight=4;overflow=hidden;rotatable=0;points=[[0,0.5],[1,0.5]];portConstraint=eastwest;" vertex="1" parent="frQt0z7kCmQg0s9N4Y5u-9">
          <mxGeometry y="156" width="160" height="26" as="geometry" />
        </mxCell>
        <mxCell id="frQt0z7kCmQg0s9N4Y5u-11" value="" style="line;html=1;strokeWidth=1;align=left;verticalAlign=middle;spacingTop=-1;spacingLeft=3;spacingRight=3;rotatable=0;labelPosition=right;points=[];portConstraint=eastwest;" vertex="1" parent="frQt0z7kCmQg0s9N4Y5u-9">
          <mxGeometry y="182" width="160" height="8" as="geometry" />
        </mxCell>
        <mxCell id="frQt0z7kCmQg0s9N4Y5u-20" value="Category" style="swimlane;fontStyle=0;align=center;verticalAlign=top;childLayout=stackLayout;horizontal=1;startSize=26;horizontalStack=0;resizeParent=1;resizeLast=0;collapsible=1;marginBottom=0;rounded=0;shadow=0;strokeWidth=1;" vertex="1" parent="WIyWlLk6GJQsqaUBKTNV-1">
          <mxGeometry x="1120" y="450" width="160" height="140" as="geometry">
            <mxRectangle x="340" y="380" width="170" height="26" as="alternateBounds" />
          </mxGeometry>
        </mxCell>
        <mxCell id="frQt0z7kCmQg0s9N4Y5u-23" value="id (int)" style="text;align=left;verticalAlign=top;spacingLeft=4;spacingRight=4;overflow=hidden;rotatable=0;points=[[0,0.5],[1,0.5]];portConstraint=eastwest;" vertex="1" parent="frQt0z7kCmQg0s9N4Y5u-20">
          <mxGeometry y="26" width="160" height="26" as="geometry" />
        </mxCell>
        <mxCell id="frQt0z7kCmQg0s9N4Y5u-24" value="name (varchar)" style="text;align=left;verticalAlign=top;spacingLeft=4;spacingRight=4;overflow=hidden;rotatable=0;points=[[0,0.5],[1,0.5]];portConstraint=eastwest;" vertex="1" parent="frQt0z7kCmQg0s9N4Y5u-20">
          <mxGeometry y="52" width="160" height="26" as="geometry" />
        </mxCell>
        <mxCell id="frQt0z7kCmQg0s9N4Y5u-21" value="description (text)" style="text;align=left;verticalAlign=top;spacingLeft=4;spacingRight=4;overflow=hidden;rotatable=0;points=[[0,0.5],[1,0.5]];portConstraint=eastwest;" vertex="1" parent="frQt0z7kCmQg0s9N4Y5u-20">
          <mxGeometry y="78" width="160" height="26" as="geometry" />
        </mxCell>
        <mxCell id="frQt0z7kCmQg0s9N4Y5u-22" value="" style="line;html=1;strokeWidth=1;align=left;verticalAlign=middle;spacingTop=-1;spacingLeft=3;spacingRight=3;rotatable=0;labelPosition=right;points=[];portConstraint=eastwest;" vertex="1" parent="frQt0z7kCmQg0s9N4Y5u-20">
          <mxGeometry y="104" width="160" height="8" as="geometry" />
        </mxCell>
        <mxCell id="frQt0z7kCmQg0s9N4Y5u-27" value="Rating" style="swimlane;fontStyle=0;align=center;verticalAlign=top;childLayout=stackLayout;horizontal=1;startSize=26;horizontalStack=0;resizeParent=1;resizeLast=0;collapsible=1;marginBottom=0;rounded=0;shadow=0;strokeWidth=1;" vertex="1" parent="WIyWlLk6GJQsqaUBKTNV-1">
          <mxGeometry x="620" y="60" width="160" height="210" as="geometry">
            <mxRectangle x="340" y="380" width="170" height="26" as="alternateBounds" />
          </mxGeometry>
        </mxCell>
        <mxCell id="frQt0z7kCmQg0s9N4Y5u-28" value="id (int)" style="text;align=left;verticalAlign=top;spacingLeft=4;spacingRight=4;overflow=hidden;rotatable=0;points=[[0,0.5],[1,0.5]];portConstraint=eastwest;" vertex="1" parent="frQt0z7kCmQg0s9N4Y5u-27">
          <mxGeometry y="26" width="160" height="26" as="geometry" />
        </mxCell>
        <mxCell id="frQt0z7kCmQg0s9N4Y5u-31" value="scoreEvent (int)" style="text;align=left;verticalAlign=top;spacingLeft=4;spacingRight=4;overflow=hidden;rotatable=0;points=[[0,0.5],[1,0.5]];portConstraint=eastwest;" vertex="1" parent="frQt0z7kCmQg0s9N4Y5u-27">
          <mxGeometry y="52" width="160" height="26" as="geometry" />
        </mxCell>
        <mxCell id="frQt0z7kCmQg0s9N4Y5u-56" value="scoreOrganizer (int)" style="text;align=left;verticalAlign=top;spacingLeft=4;spacingRight=4;overflow=hidden;rotatable=0;points=[[0,0.5],[1,0.5]];portConstraint=eastwest;" vertex="1" parent="frQt0z7kCmQg0s9N4Y5u-27">
          <mxGeometry y="78" width="160" height="26" as="geometry" />
        </mxCell>
        <mxCell id="frQt0z7kCmQg0s9N4Y5u-33" value="comment (varchar)" style="text;align=left;verticalAlign=top;spacingLeft=4;spacingRight=4;overflow=hidden;rotatable=0;points=[[0,0.5],[1,0.5]];portConstraint=eastwest;" vertex="1" parent="frQt0z7kCmQg0s9N4Y5u-27">
          <mxGeometry y="104" width="160" height="26" as="geometry" />
        </mxCell>
        <mxCell id="frQt0z7kCmQg0s9N4Y5u-32" value="ratingDate (date)" style="text;align=left;verticalAlign=top;spacingLeft=4;spacingRight=4;overflow=hidden;rotatable=0;points=[[0,0.5],[1,0.5]];portConstraint=eastwest;" vertex="1" parent="frQt0z7kCmQg0s9N4Y5u-27">
          <mxGeometry y="130" width="160" height="26" as="geometry" />
        </mxCell>
        <mxCell id="frQt0z7kCmQg0s9N4Y5u-63" value="pointsAwarded (int)" style="text;align=left;verticalAlign=top;spacingLeft=4;spacingRight=4;overflow=hidden;rotatable=0;points=[[0,0.5],[1,0.5]];portConstraint=eastwest;" vertex="1" parent="frQt0z7kCmQg0s9N4Y5u-27">
          <mxGeometry y="156" width="160" height="26" as="geometry" />
        </mxCell>
        <mxCell id="frQt0z7kCmQg0s9N4Y5u-29" value="" style="line;html=1;strokeWidth=1;align=left;verticalAlign=middle;spacingTop=-1;spacingLeft=3;spacingRight=3;rotatable=0;labelPosition=right;points=[];portConstraint=eastwest;" vertex="1" parent="frQt0z7kCmQg0s9N4Y5u-27">
          <mxGeometry y="182" width="160" height="8" as="geometry" />
        </mxCell>
        <mxCell id="frQt0z7kCmQg0s9N4Y5u-35" value="Message" style="swimlane;fontStyle=0;align=center;verticalAlign=top;childLayout=stackLayout;horizontal=1;startSize=26;horizontalStack=0;resizeParent=1;resizeLast=0;collapsible=1;marginBottom=0;rounded=0;shadow=0;strokeWidth=1;" vertex="1" parent="WIyWlLk6GJQsqaUBKTNV-1">
          <mxGeometry x="40" y="160" width="160" height="205" as="geometry">
            <mxRectangle x="340" y="380" width="170" height="26" as="alternateBounds" />
          </mxGeometry>
        </mxCell>
        <mxCell id="frQt0z7kCmQg0s9N4Y5u-36" value="id (int)" style="text;align=left;verticalAlign=top;spacingLeft=4;spacingRight=4;overflow=hidden;rotatable=0;points=[[0,0.5],[1,0.5]];portConstraint=eastwest;" vertex="1" parent="frQt0z7kCmQg0s9N4Y5u-35">
          <mxGeometry y="26" width="160" height="26" as="geometry" />
        </mxCell>
        <mxCell id="frQt0z7kCmQg0s9N4Y5u-39" value="content (text)" style="text;align=left;verticalAlign=top;spacingLeft=4;spacingRight=4;overflow=hidden;rotatable=0;points=[[0,0.5],[1,0.5]];portConstraint=eastwest;" vertex="1" parent="frQt0z7kCmQg0s9N4Y5u-35">
          <mxGeometry y="52" width="160" height="26" as="geometry" />
        </mxCell>
        <mxCell id="frQt0z7kCmQg0s9N4Y5u-38" value="sendDate (date)" style="text;align=left;verticalAlign=top;spacingLeft=4;spacingRight=4;overflow=hidden;rotatable=0;points=[[0,0.5],[1,0.5]];portConstraint=eastwest;" vertex="1" parent="frQt0z7kCmQg0s9N4Y5u-35">
          <mxGeometry y="78" width="160" height="26" as="geometry" />
        </mxCell>
        <mxCell id="frQt0z7kCmQg0s9N4Y5u-41" value="isRead (boolean)" style="text;align=left;verticalAlign=top;spacingLeft=4;spacingRight=4;overflow=hidden;rotatable=0;points=[[0,0.5],[1,0.5]];portConstraint=eastwest;" vertex="1" parent="frQt0z7kCmQg0s9N4Y5u-35">
          <mxGeometry y="104" width="160" height="26" as="geometry" />
        </mxCell>
        <mxCell id="frQt0z7kCmQg0s9N4Y5u-40" value="recipient (user)" style="text;align=left;verticalAlign=top;spacingLeft=4;spacingRight=4;overflow=hidden;rotatable=0;points=[[0,0.5],[1,0.5]];portConstraint=eastwest;" vertex="1" parent="frQt0z7kCmQg0s9N4Y5u-35">
          <mxGeometry y="130" width="160" height="26" as="geometry" />
        </mxCell>
        <mxCell id="frQt0z7kCmQg0s9N4Y5u-51" value="isReported (boolean)" style="text;align=left;verticalAlign=top;spacingLeft=4;spacingRight=4;overflow=hidden;rotatable=0;points=[[0,0.5],[1,0.5]];portConstraint=eastwest;" vertex="1" parent="frQt0z7kCmQg0s9N4Y5u-35">
          <mxGeometry y="156" width="160" height="26" as="geometry" />
        </mxCell>
        <mxCell id="frQt0z7kCmQg0s9N4Y5u-37" value="" style="line;html=1;strokeWidth=1;align=left;verticalAlign=middle;spacingTop=-1;spacingLeft=3;spacingRight=3;rotatable=0;labelPosition=right;points=[];portConstraint=eastwest;" vertex="1" parent="frQt0z7kCmQg0s9N4Y5u-35">
          <mxGeometry y="182" width="160" height="8" as="geometry" />
        </mxCell>
        <mxCell id="frQt0z7kCmQg0s9N4Y5u-42" value="Participation" style="swimlane;fontStyle=0;align=center;verticalAlign=top;childLayout=stackLayout;horizontal=1;startSize=26;horizontalStack=0;resizeParent=1;resizeLast=0;collapsible=1;marginBottom=0;rounded=0;shadow=0;strokeWidth=1;" vertex="1" parent="WIyWlLk6GJQsqaUBKTNV-1">
          <mxGeometry x="600" y="320" width="160" height="152" as="geometry">
            <mxRectangle x="600" y="320" width="160" height="26" as="alternateBounds" />
          </mxGeometry>
        </mxCell>
        <mxCell id="frQt0z7kCmQg0s9N4Y5u-43" value="id (int)" style="text;align=left;verticalAlign=top;spacingLeft=4;spacingRight=4;overflow=hidden;rotatable=0;points=[[0,0.5],[1,0.5]];portConstraint=eastwest;" vertex="1" parent="frQt0z7kCmQg0s9N4Y5u-42">
          <mxGeometry y="26" width="160" height="26" as="geometry" />
        </mxCell>
        <mxCell id="frQt0z7kCmQg0s9N4Y5u-48" value="registrationDate (date)" style="text;align=left;verticalAlign=top;spacingLeft=4;spacingRight=4;overflow=hidden;rotatable=0;points=[[0,0.5],[1,0.5]];portConstraint=eastwest;rounded=0;shadow=0;html=0;" vertex="1" parent="frQt0z7kCmQg0s9N4Y5u-42">
          <mxGeometry y="52" width="160" height="26" as="geometry" />
        </mxCell>
        <mxCell id="frQt0z7kCmQg0s9N4Y5u-49" value="status (enum)" style="text;align=left;verticalAlign=top;spacingLeft=4;spacingRight=4;overflow=hidden;rotatable=0;points=[[0,0.5],[1,0.5]];portConstraint=eastwest;rounded=0;shadow=0;html=0;" vertex="1" parent="frQt0z7kCmQg0s9N4Y5u-42">
          <mxGeometry y="78" width="160" height="26" as="geometry" />
        </mxCell>
        <mxCell id="frQt0z7kCmQg0s9N4Y5u-62" value="pointsEarned (int)" style="text;align=left;verticalAlign=top;spacingLeft=4;spacingRight=4;overflow=hidden;rotatable=0;points=[[0,0.5],[1,0.5]];portConstraint=eastwest;rounded=0;shadow=0;html=0;" vertex="1" parent="frQt0z7kCmQg0s9N4Y5u-42">
          <mxGeometry y="104" width="160" height="26" as="geometry" />
        </mxCell>
        <mxCell id="frQt0z7kCmQg0s9N4Y5u-45" value="" style="line;html=1;strokeWidth=1;align=left;verticalAlign=middle;spacingTop=-1;spacingLeft=3;spacingRight=3;rotatable=0;labelPosition=right;points=[];portConstraint=eastwest;" vertex="1" parent="frQt0z7kCmQg0s9N4Y5u-42">
          <mxGeometry y="130" width="160" height="8" as="geometry" />
        </mxCell>
        <mxCell id="mFLtXefzZM77wNrUsiu5-8" style="edgeStyle=orthogonalEdgeStyle;rounded=0;orthogonalLoop=1;jettySize=auto;html=1;exitX=0.5;exitY=1;exitDx=0;exitDy=0;" edge="1" parent="WIyWlLk6GJQsqaUBKTNV-1" source="frQt0z7kCmQg0s9N4Y5u-64" target="frQt0z7kCmQg0s9N4Y5u-70">
          <mxGeometry relative="1" as="geometry" />
        </mxCell>
        <mxCell id="mFLtXefzZM77wNrUsiu5-9" value="DEFINIT COMME" style="edgeLabel;html=1;align=center;verticalAlign=middle;resizable=0;points=[];" vertex="1" connectable="0" parent="mFLtXefzZM77wNrUsiu5-8">
          <mxGeometry x="0.0167" y="-2" relative="1" as="geometry">
            <mxPoint as="offset" />
          </mxGeometry>
        </mxCell>
        <mxCell id="frQt0z7kCmQg0s9N4Y5u-64" value="UserBadge" style="swimlane;fontStyle=0;align=center;verticalAlign=top;childLayout=stackLayout;horizontal=1;startSize=26;horizontalStack=0;resizeParent=1;resizeLast=0;collapsible=1;marginBottom=0;rounded=0;shadow=0;strokeWidth=1;" vertex="1" parent="WIyWlLk6GJQsqaUBKTNV-1">
          <mxGeometry x="40" y="570" width="160" height="130" as="geometry">
            <mxRectangle x="130" y="380" width="160" height="26" as="alternateBounds" />
          </mxGeometry>
        </mxCell>
        <mxCell id="frQt0z7kCmQg0s9N4Y5u-65" value="id (int)" style="text;align=left;verticalAlign=top;spacingLeft=4;spacingRight=4;overflow=hidden;rotatable=0;points=[[0,0.5],[1,0.5]];portConstraint=eastwest;" vertex="1" parent="frQt0z7kCmQg0s9N4Y5u-64">
          <mxGeometry y="26" width="160" height="26" as="geometry" />
        </mxCell>
        <mxCell id="frQt0z7kCmQg0s9N4Y5u-66" value="earnedDate (date)" style="text;align=left;verticalAlign=top;spacingLeft=4;spacingRight=4;overflow=hidden;rotatable=0;points=[[0,0.5],[1,0.5]];portConstraint=eastwest;rounded=0;shadow=0;html=0;" vertex="1" parent="frQt0z7kCmQg0s9N4Y5u-64">
          <mxGeometry y="52" width="160" height="26" as="geometry" />
        </mxCell>
        <mxCell id="frQt0z7kCmQg0s9N4Y5u-67" value="isDisplayed (boolean)" style="text;align=left;verticalAlign=top;spacingLeft=4;spacingRight=4;overflow=hidden;rotatable=0;points=[[0,0.5],[1,0.5]];portConstraint=eastwest;rounded=0;shadow=0;html=0;" vertex="1" parent="frQt0z7kCmQg0s9N4Y5u-64">
          <mxGeometry y="78" width="160" height="26" as="geometry" />
        </mxCell>
        <mxCell id="frQt0z7kCmQg0s9N4Y5u-69" value="" style="line;html=1;strokeWidth=1;align=left;verticalAlign=middle;spacingTop=-1;spacingLeft=3;spacingRight=3;rotatable=0;labelPosition=right;points=[];portConstraint=eastwest;" vertex="1" parent="frQt0z7kCmQg0s9N4Y5u-64">
          <mxGeometry y="104" width="160" height="8" as="geometry" />
        </mxCell>
        <mxCell id="frQt0z7kCmQg0s9N4Y5u-70" value="Badge" style="swimlane;fontStyle=0;align=center;verticalAlign=top;childLayout=stackLayout;horizontal=1;startSize=26;horizontalStack=0;resizeParent=1;resizeLast=0;collapsible=1;marginBottom=0;rounded=0;shadow=0;strokeWidth=1;" vertex="1" parent="WIyWlLk6GJQsqaUBKTNV-1">
          <mxGeometry x="40" y="820" width="160" height="200" as="geometry">
            <mxRectangle x="130" y="380" width="160" height="26" as="alternateBounds" />
          </mxGeometry>
        </mxCell>
        <mxCell id="frQt0z7kCmQg0s9N4Y5u-71" value="id (int)" style="text;align=left;verticalAlign=top;spacingLeft=4;spacingRight=4;overflow=hidden;rotatable=0;points=[[0,0.5],[1,0.5]];portConstraint=eastwest;" vertex="1" parent="frQt0z7kCmQg0s9N4Y5u-70">
          <mxGeometry y="26" width="160" height="26" as="geometry" />
        </mxCell>
        <mxCell id="frQt0z7kCmQg0s9N4Y5u-76" value="name (varchar)" style="text;align=left;verticalAlign=top;spacingLeft=4;spacingRight=4;overflow=hidden;rotatable=0;points=[[0,0.5],[1,0.5]];portConstraint=eastwest;rounded=0;shadow=0;html=0;" vertex="1" parent="frQt0z7kCmQg0s9N4Y5u-70">
          <mxGeometry y="52" width="160" height="26" as="geometry" />
        </mxCell>
        <mxCell id="frQt0z7kCmQg0s9N4Y5u-74" value="description (text)" style="text;align=left;verticalAlign=top;spacingLeft=4;spacingRight=4;overflow=hidden;rotatable=0;points=[[0,0.5],[1,0.5]];portConstraint=eastwest;rounded=0;shadow=0;html=0;" vertex="1" parent="frQt0z7kCmQg0s9N4Y5u-70">
          <mxGeometry y="78" width="160" height="26" as="geometry" />
        </mxCell>
        <mxCell id="frQt0z7kCmQg0s9N4Y5u-77" value="icon (varchar)" style="text;align=left;verticalAlign=top;spacingLeft=4;spacingRight=4;overflow=hidden;rotatable=0;points=[[0,0.5],[1,0.5]];portConstraint=eastwest;rounded=0;shadow=0;html=0;" vertex="1" parent="frQt0z7kCmQg0s9N4Y5u-70">
          <mxGeometry y="104" width="160" height="26" as="geometry" />
        </mxCell>
        <mxCell id="frQt0z7kCmQg0s9N4Y5u-78" value="requiredPoints (int)" style="text;align=left;verticalAlign=top;spacingLeft=4;spacingRight=4;overflow=hidden;rotatable=0;points=[[0,0.5],[1,0.5]];portConstraint=eastwest;rounded=0;shadow=0;html=0;" vertex="1" parent="frQt0z7kCmQg0s9N4Y5u-70">
          <mxGeometry y="130" width="160" height="26" as="geometry" />
        </mxCell>
        <mxCell id="frQt0z7kCmQg0s9N4Y5u-79" value="category (varchar)" style="text;align=left;verticalAlign=top;spacingLeft=4;spacingRight=4;overflow=hidden;rotatable=0;points=[[0,0.5],[1,0.5]];portConstraint=eastwest;rounded=0;shadow=0;html=0;" vertex="1" parent="frQt0z7kCmQg0s9N4Y5u-70">
          <mxGeometry y="156" width="160" height="26" as="geometry" />
        </mxCell>
        <mxCell id="frQt0z7kCmQg0s9N4Y5u-75" value="" style="line;html=1;strokeWidth=1;align=left;verticalAlign=middle;spacingTop=-1;spacingLeft=3;spacingRight=3;rotatable=0;labelPosition=right;points=[];portConstraint=eastwest;" vertex="1" parent="frQt0z7kCmQg0s9N4Y5u-70">
          <mxGeometry y="182" width="160" height="8" as="geometry" />
        </mxCell>
        <mxCell id="frQt0z7kCmQg0s9N4Y5u-80" value="RewardRule" style="swimlane;fontStyle=0;align=center;verticalAlign=top;childLayout=stackLayout;horizontal=1;startSize=26;horizontalStack=0;resizeParent=1;resizeLast=0;collapsible=1;marginBottom=0;rounded=0;shadow=0;strokeWidth=1;" vertex="1" parent="WIyWlLk6GJQsqaUBKTNV-1">
          <mxGeometry x="555" y="638" width="160" height="150" as="geometry">
            <mxRectangle x="130" y="380" width="160" height="26" as="alternateBounds" />
          </mxGeometry>
        </mxCell>
        <mxCell id="frQt0z7kCmQg0s9N4Y5u-81" value="id (int)" style="text;align=left;verticalAlign=top;spacingLeft=4;spacingRight=4;overflow=hidden;rotatable=0;points=[[0,0.5],[1,0.5]];portConstraint=eastwest;" vertex="1" parent="frQt0z7kCmQg0s9N4Y5u-80">
          <mxGeometry y="26" width="160" height="26" as="geometry" />
        </mxCell>
        <mxCell id="frQt0z7kCmQg0s9N4Y5u-82" value="actionType (varchar)" style="text;align=left;verticalAlign=top;spacingLeft=4;spacingRight=4;overflow=hidden;rotatable=0;points=[[0,0.5],[1,0.5]];portConstraint=eastwest;rounded=0;shadow=0;html=0;" vertex="1" parent="frQt0z7kCmQg0s9N4Y5u-80">
          <mxGeometry y="52" width="160" height="26" as="geometry" />
        </mxCell>
        <mxCell id="frQt0z7kCmQg0s9N4Y5u-83" value="basePoints (int)" style="text;align=left;verticalAlign=top;spacingLeft=4;spacingRight=4;overflow=hidden;rotatable=0;points=[[0,0.5],[1,0.5]];portConstraint=eastwest;rounded=0;shadow=0;html=0;" vertex="1" parent="frQt0z7kCmQg0s9N4Y5u-80">
          <mxGeometry y="78" width="160" height="26" as="geometry" />
        </mxCell>
        <mxCell id="frQt0z7kCmQg0s9N4Y5u-85" value="condition (text)" style="text;align=left;verticalAlign=top;spacingLeft=4;spacingRight=4;overflow=hidden;rotatable=0;points=[[0,0.5],[1,0.5]];portConstraint=eastwest;rounded=0;shadow=0;html=0;" vertex="1" parent="frQt0z7kCmQg0s9N4Y5u-80">
          <mxGeometry y="104" width="160" height="26" as="geometry" />
        </mxCell>
        <mxCell id="frQt0z7kCmQg0s9N4Y5u-84" value="" style="line;html=1;strokeWidth=1;align=left;verticalAlign=middle;spacingTop=-1;spacingLeft=3;spacingRight=3;rotatable=0;labelPosition=right;points=[];portConstraint=eastwest;" vertex="1" parent="frQt0z7kCmQg0s9N4Y5u-80">
          <mxGeometry y="130" width="160" height="8" as="geometry" />
        </mxCell>
        <mxCell id="frQt0z7kCmQg0s9N4Y5u-92" value="" style="endArrow=classic;startArrow=classic;html=1;rounded=0;entryX=0;entryY=0.5;entryDx=0;entryDy=0;exitX=0.75;exitY=1;exitDx=0;exitDy=0;edgeStyle=orthogonalEdgeStyle;curved=1;" edge="1" parent="WIyWlLk6GJQsqaUBKTNV-1" source="frQt0z7kCmQg0s9N4Y5u-35" target="zkfFHV4jXpPFQw0GAbJ--5">
          <mxGeometry width="50" height="50" relative="1" as="geometry">
            <mxPoint x="140" y="360" as="sourcePoint" />
            <mxPoint x="310" y="490" as="targetPoint" />
          </mxGeometry>
        </mxCell>
        <mxCell id="frQt0z7kCmQg0s9N4Y5u-93" value="ENVOYER / RECEVOIR" style="edgeLabel;html=1;align=center;verticalAlign=middle;resizable=0;points=[];" vertex="1" connectable="0" parent="frQt0z7kCmQg0s9N4Y5u-92">
          <mxGeometry x="0.1364" y="10" relative="1" as="geometry">
            <mxPoint x="-5" y="-3" as="offset" />
          </mxGeometry>
        </mxCell>
        <mxCell id="mFLtXefzZM77wNrUsiu5-0" value="1" style="text;html=1;align=center;verticalAlign=middle;resizable=0;points=[];autosize=1;strokeColor=none;fillColor=none;" vertex="1" parent="WIyWlLk6GJQsqaUBKTNV-1">
          <mxGeometry x="305" y="408" width="30" height="30" as="geometry" />
        </mxCell>
        <mxCell id="mFLtXefzZM77wNrUsiu5-1" value="*" style="text;html=1;align=center;verticalAlign=middle;resizable=0;points=[];autosize=1;strokeColor=none;fillColor=none;" vertex="1" parent="WIyWlLk6GJQsqaUBKTNV-1">
          <mxGeometry x="160" y="358" width="30" height="30" as="geometry" />
        </mxCell>
        <mxCell id="mFLtXefzZM77wNrUsiu5-4" style="edgeStyle=orthogonalEdgeStyle;rounded=0;orthogonalLoop=1;jettySize=auto;html=1;exitX=0;exitY=0.5;exitDx=0;exitDy=0;entryX=0.66;entryY=-0.011;entryDx=0;entryDy=0;entryPerimeter=0;curved=1;" edge="1" parent="WIyWlLk6GJQsqaUBKTNV-1" source="frQt0z7kCmQg0s9N4Y5u-2" target="frQt0z7kCmQg0s9N4Y5u-64">
          <mxGeometry relative="1" as="geometry" />
        </mxCell>
        <mxCell id="mFLtXefzZM77wNrUsiu5-5" value="GAGNER" style="edgeLabel;html=1;align=center;verticalAlign=middle;resizable=0;points=[];" vertex="1" connectable="0" parent="mFLtXefzZM77wNrUsiu5-4">
          <mxGeometry x="-0.1884" y="1" relative="1" as="geometry">
            <mxPoint as="offset" />
          </mxGeometry>
        </mxCell>
        <mxCell id="mFLtXefzZM77wNrUsiu5-6" value="1" style="edgeLabel;html=1;align=center;verticalAlign=middle;resizable=0;points=[];" vertex="1" connectable="0" parent="mFLtXefzZM77wNrUsiu5-4">
          <mxGeometry x="-0.9269" y="-2" relative="1" as="geometry">
            <mxPoint y="-13" as="offset" />
          </mxGeometry>
        </mxCell>
        <mxCell id="mFLtXefzZM77wNrUsiu5-7" value="*" style="text;html=1;align=center;verticalAlign=middle;resizable=0;points=[];autosize=1;strokeColor=none;fillColor=none;" vertex="1" parent="WIyWlLk6GJQsqaUBKTNV-1">
          <mxGeometry x="120" y="548" width="30" height="30" as="geometry" />
        </mxCell>
        <mxCell id="mFLtXefzZM77wNrUsiu5-10" value="*" style="text;html=1;align=center;verticalAlign=middle;resizable=0;points=[];autosize=1;strokeColor=none;fillColor=none;" vertex="1" parent="WIyWlLk6GJQsqaUBKTNV-1">
          <mxGeometry x="115" y="698" width="30" height="30" as="geometry" />
        </mxCell>
        <mxCell id="mFLtXefzZM77wNrUsiu5-11" value="1" style="text;html=1;align=center;verticalAlign=middle;resizable=0;points=[];autosize=1;strokeColor=none;fillColor=none;" vertex="1" parent="WIyWlLk6GJQsqaUBKTNV-1">
          <mxGeometry x="125" y="798" width="30" height="30" as="geometry" />
        </mxCell>
        <mxCell id="mFLtXefzZM77wNrUsiu5-15" value="*" style="text;html=1;align=center;verticalAlign=middle;resizable=0;points=[];autosize=1;strokeColor=none;fillColor=none;" vertex="1" parent="WIyWlLk6GJQsqaUBKTNV-1">
          <mxGeometry x="605" y="298" width="30" height="30" as="geometry" />
        </mxCell>
        <mxCell id="mFLtXefzZM77wNrUsiu5-16" value="1" style="text;html=1;align=center;verticalAlign=middle;resizable=0;points=[];autosize=1;strokeColor=none;fillColor=none;" vertex="1" parent="WIyWlLk6GJQsqaUBKTNV-1">
          <mxGeometry x="460" y="298" width="30" height="30" as="geometry" />
        </mxCell>
        <mxCell id="mFLtXefzZM77wNrUsiu5-17" style="edgeStyle=orthogonalEdgeStyle;rounded=0;orthogonalLoop=1;jettySize=auto;html=1;entryX=0.5;entryY=0;entryDx=0;entryDy=0;curved=1;exitX=0.75;exitY=0;exitDx=0;exitDy=0;" edge="1" parent="WIyWlLk6GJQsqaUBKTNV-1" source="frQt0z7kCmQg0s9N4Y5u-42" target="zkfFHV4jXpPFQw0GAbJ--17">
          <mxGeometry relative="1" as="geometry">
            <mxPoint x="720" y="290" as="sourcePoint" />
            <Array as="points">
              <mxPoint x="720" y="290" />
              <mxPoint x="930" y="290" />
            </Array>
          </mxGeometry>
        </mxCell>
        <mxCell id="mFLtXefzZM77wNrUsiu5-18" value="CONTENIR" style="edgeLabel;html=1;align=center;verticalAlign=middle;resizable=0;points=[];" vertex="1" connectable="0" parent="mFLtXefzZM77wNrUsiu5-17">
          <mxGeometry x="-0.1951" y="-6" relative="1" as="geometry">
            <mxPoint x="19" y="-16" as="offset" />
          </mxGeometry>
        </mxCell>
        <mxCell id="mFLtXefzZM77wNrUsiu5-19" value="*" style="text;html=1;align=center;verticalAlign=middle;resizable=0;points=[];autosize=1;strokeColor=none;fillColor=none;" vertex="1" parent="WIyWlLk6GJQsqaUBKTNV-1">
          <mxGeometry x="730" y="298" width="30" height="30" as="geometry" />
        </mxCell>
        <mxCell id="mFLtXefzZM77wNrUsiu5-20" value="1" style="text;html=1;align=center;verticalAlign=middle;resizable=0;points=[];autosize=1;strokeColor=none;fillColor=none;" vertex="1" parent="WIyWlLk6GJQsqaUBKTNV-1">
          <mxGeometry x="905" y="298" width="30" height="30" as="geometry" />
        </mxCell>
        <mxCell id="mFLtXefzZM77wNrUsiu5-23" value="1" style="text;html=1;align=center;verticalAlign=middle;resizable=0;points=[];autosize=1;strokeColor=none;fillColor=none;" vertex="1" parent="WIyWlLk6GJQsqaUBKTNV-1">
          <mxGeometry x="1090" y="518" width="30" height="30" as="geometry" />
        </mxCell>
        <mxCell id="mFLtXefzZM77wNrUsiu5-24" value="*" style="text;html=1;align=center;verticalAlign=middle;resizable=0;points=[];autosize=1;strokeColor=none;fillColor=none;" vertex="1" parent="WIyWlLk6GJQsqaUBKTNV-1">
          <mxGeometry x="1010" y="548" width="30" height="30" as="geometry" />
        </mxCell>
        <mxCell id="mFLtXefzZM77wNrUsiu5-26" style="edgeStyle=orthogonalEdgeStyle;rounded=0;orthogonalLoop=1;jettySize=auto;html=1;exitX=0.75;exitY=0;exitDx=0;exitDy=0;entryX=0.011;entryY=-0.092;entryDx=0;entryDy=0;entryPerimeter=0;curved=1;" edge="1" parent="WIyWlLk6GJQsqaUBKTNV-1" source="zkfFHV4jXpPFQw0GAbJ--17" target="frQt0z7kCmQg0s9N4Y5u-10">
          <mxGeometry relative="1" as="geometry" />
        </mxCell>
        <mxCell id="mFLtXefzZM77wNrUsiu5-27" value="SE DEROULER" style="edgeLabel;html=1;align=center;verticalAlign=middle;resizable=0;points=[];" vertex="1" connectable="0" parent="mFLtXefzZM77wNrUsiu5-26">
          <mxGeometry x="0.0844" y="-27" relative="1" as="geometry">
            <mxPoint as="offset" />
          </mxGeometry>
        </mxCell>
        <mxCell id="mFLtXefzZM77wNrUsiu5-28" value="1" style="text;html=1;align=center;verticalAlign=middle;resizable=0;points=[];autosize=1;strokeColor=none;fillColor=none;" vertex="1" parent="WIyWlLk6GJQsqaUBKTNV-1">
          <mxGeometry x="1095" y="198" width="30" height="30" as="geometry" />
        </mxCell>
        <mxCell id="mFLtXefzZM77wNrUsiu5-29" value="*" style="text;html=1;align=center;verticalAlign=middle;resizable=0;points=[];autosize=1;strokeColor=none;fillColor=none;" vertex="1" parent="WIyWlLk6GJQsqaUBKTNV-1">
          <mxGeometry x="960" y="298" width="30" height="30" as="geometry" />
        </mxCell>
        <mxCell id="mFLtXefzZM77wNrUsiu5-30" style="edgeStyle=orthogonalEdgeStyle;rounded=0;orthogonalLoop=1;jettySize=auto;html=1;exitX=0.188;exitY=0;exitDx=0;exitDy=0;entryX=0;entryY=0.5;entryDx=0;entryDy=0;curved=1;exitPerimeter=0;" edge="1" parent="WIyWlLk6GJQsqaUBKTNV-1" source="zkfFHV4jXpPFQw0GAbJ--0" target="frQt0z7kCmQg0s9N4Y5u-31">
          <mxGeometry relative="1" as="geometry" />
        </mxCell>
        <mxCell id="mFLtXefzZM77wNrUsiu5-31" value="DONNER" style="edgeLabel;html=1;align=center;verticalAlign=middle;resizable=0;points=[];" vertex="1" connectable="0" parent="mFLtXefzZM77wNrUsiu5-30">
          <mxGeometry x="0.0184" relative="1" as="geometry">
            <mxPoint x="33" y="40" as="offset" />
          </mxGeometry>
        </mxCell>
        <mxCell id="mFLtXefzZM77wNrUsiu5-36" value="*" style="text;html=1;align=center;verticalAlign=middle;resizable=0;points=[];autosize=1;strokeColor=none;fillColor=none;" vertex="1" parent="WIyWlLk6GJQsqaUBKTNV-1">
          <mxGeometry x="595" y="98" width="30" height="30" as="geometry" />
        </mxCell>
        <mxCell id="mFLtXefzZM77wNrUsiu5-37" value="1" style="text;html=1;align=center;verticalAlign=middle;resizable=0;points=[];autosize=1;strokeColor=none;fillColor=none;" vertex="1" parent="WIyWlLk6GJQsqaUBKTNV-1">
          <mxGeometry x="335" y="290" width="30" height="30" as="geometry" />
        </mxCell>
        <mxCell id="mFLtXefzZM77wNrUsiu5-38" style="edgeStyle=orthogonalEdgeStyle;rounded=0;orthogonalLoop=1;jettySize=auto;html=1;exitX=1;exitY=0.5;exitDx=0;exitDy=0;entryX=0.619;entryY=0.008;entryDx=0;entryDy=0;entryPerimeter=0;curved=1;" edge="1" parent="WIyWlLk6GJQsqaUBKTNV-1" source="frQt0z7kCmQg0s9N4Y5u-31" target="zkfFHV4jXpPFQw0GAbJ--17">
          <mxGeometry relative="1" as="geometry" />
        </mxCell>
        <mxCell id="mFLtXefzZM77wNrUsiu5-39" value="RECEVOIR" style="edgeLabel;html=1;align=center;verticalAlign=middle;resizable=0;points=[];" vertex="1" connectable="0" parent="mFLtXefzZM77wNrUsiu5-38">
          <mxGeometry x="0.1821" y="-46" relative="1" as="geometry">
            <mxPoint as="offset" />
          </mxGeometry>
        </mxCell>
        <mxCell id="mFLtXefzZM77wNrUsiu5-40" value="1" style="text;html=1;align=center;verticalAlign=middle;resizable=0;points=[];autosize=1;strokeColor=none;fillColor=none;" vertex="1" parent="WIyWlLk6GJQsqaUBKTNV-1">
          <mxGeometry x="925" y="278" width="30" height="30" as="geometry" />
        </mxCell>
        <mxCell id="mFLtXefzZM77wNrUsiu5-41" value="*" style="text;html=1;align=center;verticalAlign=middle;resizable=0;points=[];autosize=1;strokeColor=none;fillColor=none;" vertex="1" parent="WIyWlLk6GJQsqaUBKTNV-1">
          <mxGeometry x="775" y="98" width="30" height="30" as="geometry" />
        </mxCell>
        <mxCell id="mFLtXefzZM77wNrUsiu5-43" style="edgeStyle=orthogonalEdgeStyle;rounded=0;orthogonalLoop=1;jettySize=auto;html=1;entryX=0;entryY=0.077;entryDx=0;entryDy=0;entryPerimeter=0;curved=1;" edge="1" parent="WIyWlLk6GJQsqaUBKTNV-1" source="frQt0z7kCmQg0s9N4Y5u-80" target="frQt0z7kCmQg0s9N4Y5u-25">
          <mxGeometry relative="1" as="geometry" />
        </mxCell>
        <mxCell id="mFLtXefzZM77wNrUsiu5-44" value="APPLIQUER" style="edgeLabel;html=1;align=center;verticalAlign=middle;resizable=0;points=[];" vertex="1" connectable="0" parent="mFLtXefzZM77wNrUsiu5-43">
          <mxGeometry x="0.0632" y="-24" relative="1" as="geometry">
            <mxPoint as="offset" />
          </mxGeometry>
        </mxCell>
        <mxCell id="mFLtXefzZM77wNrUsiu5-45" value="*" style="text;html=1;align=center;verticalAlign=middle;resizable=0;points=[];autosize=1;strokeColor=none;fillColor=none;" vertex="1" parent="WIyWlLk6GJQsqaUBKTNV-1">
          <mxGeometry x="635" y="608" width="30" height="30" as="geometry" />
        </mxCell>
        <mxCell id="mFLtXefzZM77wNrUsiu5-46" value="*" style="text;html=1;align=center;verticalAlign=middle;resizable=0;points=[];autosize=1;strokeColor=none;fillColor=none;" vertex="1" parent="WIyWlLk6GJQsqaUBKTNV-1">
          <mxGeometry x="820" y="528" width="30" height="30" as="geometry" />
        </mxCell>
        <mxCell id="mFLtXefzZM77wNrUsiu5-49" style="edgeStyle=orthogonalEdgeStyle;rounded=0;orthogonalLoop=1;jettySize=auto;html=1;exitX=0.75;exitY=0;exitDx=0;exitDy=0;entryX=0.296;entryY=0;entryDx=0;entryDy=0;entryPerimeter=0;curved=1;" edge="1" parent="WIyWlLk6GJQsqaUBKTNV-1" source="zkfFHV4jXpPFQw0GAbJ--0" target="frQt0z7kCmQg0s9N4Y5u-42">
          <mxGeometry relative="1" as="geometry" />
        </mxCell>
        <mxCell id="mFLtXefzZM77wNrUsiu5-50" value="S&#39;INSCRIRE" style="edgeLabel;html=1;align=center;verticalAlign=middle;resizable=0;points=[];" vertex="1" connectable="0" parent="mFLtXefzZM77wNrUsiu5-49">
          <mxGeometry x="-0.1613" y="2" relative="1" as="geometry">
            <mxPoint as="offset" />
          </mxGeometry>
        </mxCell>
      </root>
    </mxGraphModel>
  </diagram>
  <diagram id="P92gCAAniffRrzs1RQb1" name="Page-2">
    <mxGraphModel dx="1594" dy="1219" grid="1" gridSize="10" guides="1" tooltips="1" connect="1" arrows="1" fold="1" page="1" pageScale="1" pageWidth="827" pageHeight="1169" math="0" shadow="0">
      <root>
        <mxCell id="0" />
        <mxCell id="1" parent="0" />
        <mxCell id="0tj10JxXKIyUEz0Usgl5-1" value="Visiteur" style="shape=umlActor;verticalLabelPosition=bottom;verticalAlign=top;html=1;" vertex="1" parent="1">
          <mxGeometry x="126" y="380" width="30" height="60" as="geometry" />
        </mxCell>
        <mxCell id="0tj10JxXKIyUEz0Usgl5-29" style="edgeStyle=orthogonalEdgeStyle;rounded=0;orthogonalLoop=1;jettySize=auto;html=1;" edge="1" parent="1" source="0tj10JxXKIyUEz0Usgl5-2">
          <mxGeometry relative="1" as="geometry">
            <mxPoint x="141" y="470" as="targetPoint" />
          </mxGeometry>
        </mxCell>
        <mxCell id="0tj10JxXKIyUEz0Usgl5-2" value="Utilisateur" style="shape=umlActor;verticalLabelPosition=bottom;verticalAlign=top;html=1;" vertex="1" parent="1">
          <mxGeometry x="126" y="630" width="30" height="60" as="geometry" />
        </mxCell>
        <mxCell id="0tj10JxXKIyUEz0Usgl5-3" value="Consulter les activités" style="ellipse;whiteSpace=wrap;html=1;" vertex="1" parent="1">
          <mxGeometry x="356" y="270" width="120" height="80" as="geometry" />
        </mxCell>
        <mxCell id="0tj10JxXKIyUEz0Usgl5-25" style="edgeStyle=orthogonalEdgeStyle;rounded=0;orthogonalLoop=1;jettySize=auto;html=1;exitX=0.5;exitY=0;exitDx=0;exitDy=0;dashed=1;dashPattern=8 8;" edge="1" parent="1" source="0tj10JxXKIyUEz0Usgl5-4" target="0tj10JxXKIyUEz0Usgl5-3">
          <mxGeometry relative="1" as="geometry" />
        </mxCell>
        <mxCell id="0tj10JxXKIyUEz0Usgl5-26" value="&amp;lt;&amp;lt;include&amp;gt;&amp;gt;" style="edgeLabel;html=1;align=center;verticalAlign=middle;resizable=0;points=[];" vertex="1" connectable="0" parent="0tj10JxXKIyUEz0Usgl5-25">
          <mxGeometry x="-0.0043" y="1" relative="1" as="geometry">
            <mxPoint as="offset" />
          </mxGeometry>
        </mxCell>
        <mxCell id="0tj10JxXKIyUEz0Usgl5-4" value="Voir le détail d&#39;une activité" style="ellipse;whiteSpace=wrap;html=1;" vertex="1" parent="1">
          <mxGeometry x="356" y="420" width="120" height="80" as="geometry" />
        </mxCell>
        <mxCell id="0tj10JxXKIyUEz0Usgl5-27" style="edgeStyle=orthogonalEdgeStyle;rounded=0;orthogonalLoop=1;jettySize=auto;html=1;dashed=1;dashPattern=8 8;" edge="1" parent="1" source="0tj10JxXKIyUEz0Usgl5-5" target="0tj10JxXKIyUEz0Usgl5-4">
          <mxGeometry relative="1" as="geometry" />
        </mxCell>
        <mxCell id="0tj10JxXKIyUEz0Usgl5-28" value="&amp;lt;&amp;lt;include&amp;gt;&amp;gt;" style="edgeLabel;html=1;align=center;verticalAlign=middle;resizable=0;points=[];" vertex="1" connectable="0" parent="0tj10JxXKIyUEz0Usgl5-27">
          <mxGeometry x="0.0284" y="3" relative="1" as="geometry">
            <mxPoint as="offset" />
          </mxGeometry>
        </mxCell>
        <mxCell id="0tj10JxXKIyUEz0Usgl5-5" value="S&#39;inscrire à une activité" style="ellipse;whiteSpace=wrap;html=1;" vertex="1" parent="1">
          <mxGeometry x="356" y="580" width="120" height="80" as="geometry" />
        </mxCell>
        <mxCell id="0tj10JxXKIyUEz0Usgl5-6" value="&lt;b&gt;&lt;font style=&quot;font-size: 16px;&quot;&gt;Diagramme de cas d&#39;utilisation pour l&#39;inscription à une activité&lt;/font&gt;&lt;/b&gt;" style="text;html=1;align=center;verticalAlign=middle;whiteSpace=wrap;rounded=0;" vertex="1" parent="1">
          <mxGeometry x="174" y="10" width="480" height="30" as="geometry" />
        </mxCell>
        <mxCell id="0tj10JxXKIyUEz0Usgl5-13" value="" style="endArrow=none;html=1;rounded=0;" edge="1" parent="1" source="0tj10JxXKIyUEz0Usgl5-1" target="0tj10JxXKIyUEz0Usgl5-3">
          <mxGeometry width="50" height="50" relative="1" as="geometry">
            <mxPoint x="306" y="370" as="sourcePoint" />
            <mxPoint x="356" y="320" as="targetPoint" />
          </mxGeometry>
        </mxCell>
        <mxCell id="0tj10JxXKIyUEz0Usgl5-14" value="" style="endArrow=none;html=1;rounded=0;entryX=0.017;entryY=0.375;entryDx=0;entryDy=0;entryPerimeter=0;" edge="1" parent="1" source="0tj10JxXKIyUEz0Usgl5-1" target="0tj10JxXKIyUEz0Usgl5-4">
          <mxGeometry width="50" height="50" relative="1" as="geometry">
            <mxPoint x="166" y="410" as="sourcePoint" />
            <mxPoint x="366" y="470" as="targetPoint" />
          </mxGeometry>
        </mxCell>
        <mxCell id="0tj10JxXKIyUEz0Usgl5-15" value="" style="endArrow=none;html=1;rounded=0;" edge="1" parent="1" source="0tj10JxXKIyUEz0Usgl5-1" target="0tj10JxXKIyUEz0Usgl5-5">
          <mxGeometry width="50" height="50" relative="1" as="geometry">
            <mxPoint x="166" y="423" as="sourcePoint" />
            <mxPoint x="368" y="460" as="targetPoint" />
          </mxGeometry>
        </mxCell>
        <mxCell id="0tj10JxXKIyUEz0Usgl5-19" style="edgeStyle=orthogonalEdgeStyle;rounded=0;orthogonalLoop=1;jettySize=auto;html=1;dashed=1;curved=1;entryX=0;entryY=0;entryDx=0;entryDy=0;dashPattern=8 8;" edge="1" parent="1" source="0tj10JxXKIyUEz0Usgl5-16" target="0tj10JxXKIyUEz0Usgl5-3">
          <mxGeometry relative="1" as="geometry" />
        </mxCell>
        <mxCell id="0tj10JxXKIyUEz0Usgl5-20" value="&amp;lt;&amp;lt;extend&amp;gt;&amp;gt;" style="edgeLabel;html=1;align=center;verticalAlign=middle;resizable=0;points=[];" vertex="1" connectable="0" parent="0tj10JxXKIyUEz0Usgl5-19">
          <mxGeometry x="-0.4083" y="-9" relative="1" as="geometry">
            <mxPoint x="20" y="11" as="offset" />
          </mxGeometry>
        </mxCell>
        <mxCell id="0tj10JxXKIyUEz0Usgl5-16" value="Sélectionner une zone" style="ellipse;whiteSpace=wrap;html=1;" vertex="1" parent="1">
          <mxGeometry x="156" y="150" width="120" height="80" as="geometry" />
        </mxCell>
        <mxCell id="0tj10JxXKIyUEz0Usgl5-17" value="Sélectionner une date" style="ellipse;whiteSpace=wrap;html=1;" vertex="1" parent="1">
          <mxGeometry x="402" y="110" width="120" height="80" as="geometry" />
        </mxCell>
        <mxCell id="0tj10JxXKIyUEz0Usgl5-18" value="Sélectionner une activité" style="ellipse;whiteSpace=wrap;html=1;" vertex="1" parent="1">
          <mxGeometry x="572" y="140" width="120" height="80" as="geometry" />
        </mxCell>
        <mxCell id="0tj10JxXKIyUEz0Usgl5-21" style="edgeStyle=orthogonalEdgeStyle;rounded=0;orthogonalLoop=1;jettySize=auto;html=1;dashed=1;dashPattern=8 8;curved=1;" edge="1" parent="1" source="0tj10JxXKIyUEz0Usgl5-17" target="0tj10JxXKIyUEz0Usgl5-3">
          <mxGeometry relative="1" as="geometry" />
        </mxCell>
        <mxCell id="0tj10JxXKIyUEz0Usgl5-22" value="&amp;lt;&amp;lt;include&amp;gt;&amp;gt;" style="edgeLabel;html=1;align=center;verticalAlign=middle;resizable=0;points=[];" vertex="1" connectable="0" parent="0tj10JxXKIyUEz0Usgl5-21">
          <mxGeometry x="-0.0461" y="-1" relative="1" as="geometry">
            <mxPoint as="offset" />
          </mxGeometry>
        </mxCell>
        <mxCell id="0tj10JxXKIyUEz0Usgl5-23" style="edgeStyle=orthogonalEdgeStyle;rounded=0;orthogonalLoop=1;jettySize=auto;html=1;entryX=0.886;entryY=0.15;entryDx=0;entryDy=0;entryPerimeter=0;dashed=1;dashPattern=8 8;curved=1;exitX=0.366;exitY=0.998;exitDx=0;exitDy=0;exitPerimeter=0;" edge="1" parent="1" source="0tj10JxXKIyUEz0Usgl5-18" target="0tj10JxXKIyUEz0Usgl5-3">
          <mxGeometry relative="1" as="geometry">
            <mxPoint x="522" y="220" as="sourcePoint" />
            <mxPoint x="472" y="293" as="targetPoint" />
          </mxGeometry>
        </mxCell>
        <mxCell id="0tj10JxXKIyUEz0Usgl5-24" value="&amp;lt;&amp;lt;include&amp;gt;&amp;gt;" style="edgeLabel;html=1;align=center;verticalAlign=middle;resizable=0;points=[];" vertex="1" connectable="0" parent="0tj10JxXKIyUEz0Usgl5-23">
          <mxGeometry x="-0.0461" y="-1" relative="1" as="geometry">
            <mxPoint as="offset" />
          </mxGeometry>
        </mxCell>
        <mxCell id="0tj10JxXKIyUEz0Usgl5-30" value="" style="endArrow=none;html=1;rounded=0;" edge="1" parent="1" source="0tj10JxXKIyUEz0Usgl5-31" target="0tj10JxXKIyUEz0Usgl5-2">
          <mxGeometry width="50" height="50" relative="1" as="geometry">
            <mxPoint x="442" y="740" as="sourcePoint" />
            <mxPoint x="492" y="690" as="targetPoint" />
          </mxGeometry>
        </mxCell>
        <mxCell id="0tj10JxXKIyUEz0Usgl5-31" value="Se connecter" style="ellipse;whiteSpace=wrap;html=1;" vertex="1" parent="1">
          <mxGeometry x="362" y="750" width="120" height="80" as="geometry" />
        </mxCell>
        <mxCell id="0tj10JxXKIyUEz0Usgl5-32" style="edgeStyle=orthogonalEdgeStyle;rounded=0;orthogonalLoop=1;jettySize=auto;html=1;entryX=0.558;entryY=0.998;entryDx=0;entryDy=0;entryPerimeter=0;dashed=1;dashPattern=8 8;" edge="1" parent="1" source="0tj10JxXKIyUEz0Usgl5-31" target="0tj10JxXKIyUEz0Usgl5-5">
          <mxGeometry relative="1" as="geometry" />
        </mxCell>
        <mxCell id="0tj10JxXKIyUEz0Usgl5-33" value="&amp;lt;&amp;lt;extend&amp;gt;&amp;gt;" style="edgeLabel;html=1;align=center;verticalAlign=middle;resizable=0;points=[];" vertex="1" connectable="0" parent="0tj10JxXKIyUEz0Usgl5-32">
          <mxGeometry x="0.0433" y="1" relative="1" as="geometry">
            <mxPoint as="offset" />
          </mxGeometry>
        </mxCell>
        <mxCell id="0tj10JxXKIyUEz0Usgl5-35" value="" style="edgeStyle=orthogonalEdgeStyle;rounded=0;orthogonalLoop=1;jettySize=auto;html=1;curved=1;dashed=1;dashPattern=8 8;" edge="1" parent="1" source="0tj10JxXKIyUEz0Usgl5-31" target="0tj10JxXKIyUEz0Usgl5-34">
          <mxGeometry relative="1" as="geometry" />
        </mxCell>
        <mxCell id="0tj10JxXKIyUEz0Usgl5-36" value="&amp;lt;&amp;lt;include&amp;gt;&amp;gt;" style="edgeLabel;html=1;align=center;verticalAlign=middle;resizable=0;points=[];" vertex="1" connectable="0" parent="0tj10JxXKIyUEz0Usgl5-35">
          <mxGeometry x="0.1354" relative="1" as="geometry">
            <mxPoint as="offset" />
          </mxGeometry>
        </mxCell>
        <mxCell id="0tj10JxXKIyUEz0Usgl5-34" value="Créer un compte" style="ellipse;whiteSpace=wrap;html=1;" vertex="1" parent="1">
          <mxGeometry x="582" y="690" width="120" height="80" as="geometry" />
        </mxCell>
      </root>
    </mxGraphModel>
  </diagram>
  <diagram id="cIm1Tbjba0Tc5AwqtUw2" name="Page-3">
    <mxGraphModel dx="687" dy="1158" grid="1" gridSize="10" guides="1" tooltips="1" connect="1" arrows="1" fold="1" page="1" pageScale="1" pageWidth="827" pageHeight="1169" math="0" shadow="0">
      <root>
        <mxCell id="0" />
        <mxCell id="1" parent="0" />
        <mxCell id="5T1NbQgIR6Mrxo33GEoN-1" value="Utilisateur" style="shape=umlActor;verticalLabelPosition=bottom;verticalAlign=top;html=1;" vertex="1" parent="1">
          <mxGeometry x="970" y="250" width="30" height="60" as="geometry" />
        </mxCell>
        <mxCell id="5T1NbQgIR6Mrxo33GEoN-2" style="edgeStyle=orthogonalEdgeStyle;rounded=0;orthogonalLoop=1;jettySize=auto;html=1;" edge="1" parent="1" source="5T1NbQgIR6Mrxo33GEoN-3">
          <mxGeometry relative="1" as="geometry">
            <mxPoint x="985" y="340" as="targetPoint" />
          </mxGeometry>
        </mxCell>
        <mxCell id="5T1NbQgIR6Mrxo33GEoN-3" value="Organisateur" style="shape=umlActor;verticalLabelPosition=bottom;verticalAlign=top;html=1;" vertex="1" parent="1">
          <mxGeometry x="970" y="500" width="30" height="60" as="geometry" />
        </mxCell>
        <mxCell id="5T1NbQgIR6Mrxo33GEoN-4" value="Participe à un événement" style="ellipse;whiteSpace=wrap;html=1;" vertex="1" parent="1">
          <mxGeometry x="1140" y="240" width="120" height="80" as="geometry" />
        </mxCell>
        <mxCell id="5T1NbQgIR6Mrxo33GEoN-5" value="&lt;b&gt;&lt;font style=&quot;font-size: 16px;&quot;&gt;Diagramme de cas d&#39;utilisation pour l&#39;acquisition de points d&#39;expérience&lt;/font&gt;&lt;/b&gt;" style="text;html=1;align=center;verticalAlign=middle;whiteSpace=wrap;rounded=0;" vertex="1" parent="1">
          <mxGeometry x="950" y="20" width="580" height="30" as="geometry" />
        </mxCell>
        <mxCell id="5T1NbQgIR6Mrxo33GEoN-6" value="" style="endArrow=none;html=1;rounded=0;" edge="1" parent="1" source="5T1NbQgIR6Mrxo33GEoN-1" target="5T1NbQgIR6Mrxo33GEoN-4">
          <mxGeometry width="50" height="50" relative="1" as="geometry">
            <mxPoint x="1150" y="240" as="sourcePoint" />
            <mxPoint x="1200" y="190" as="targetPoint" />
          </mxGeometry>
        </mxCell>
        <mxCell id="5T1NbQgIR6Mrxo33GEoN-7" style="edgeStyle=orthogonalEdgeStyle;rounded=0;orthogonalLoop=1;jettySize=auto;html=1;exitX=0.5;exitY=0;exitDx=0;exitDy=0;entryX=0.5;entryY=1;entryDx=0;entryDy=0;curved=1;dashed=1;dashPattern=8 8;" edge="1" parent="1" source="5T1NbQgIR6Mrxo33GEoN-24" target="5T1NbQgIR6Mrxo33GEoN-10">
          <mxGeometry relative="1" as="geometry" />
        </mxCell>
        <mxCell id="5T1NbQgIR6Mrxo33GEoN-8" value="&amp;lt;&amp;lt;incule&amp;gt;&amp;gt;" style="edgeLabel;html=1;align=center;verticalAlign=middle;resizable=0;points=[];" vertex="1" connectable="0" parent="5T1NbQgIR6Mrxo33GEoN-7">
          <mxGeometry x="-0.0149" y="8" relative="1" as="geometry">
            <mxPoint x="4" y="-13" as="offset" />
          </mxGeometry>
        </mxCell>
        <mxCell id="5T1NbQgIR6Mrxo33GEoN-9" value="Reçoit des points d&#39;expérience (utilisateur)" style="ellipse;whiteSpace=wrap;html=1;" vertex="1" parent="1">
          <mxGeometry x="1070" y="100" width="120" height="80" as="geometry" />
        </mxCell>
        <mxCell id="5T1NbQgIR6Mrxo33GEoN-10" value="Noter commenter la sortie" style="ellipse;whiteSpace=wrap;html=1;" vertex="1" parent="1">
          <mxGeometry x="1350" y="160" width="120" height="80" as="geometry" />
        </mxCell>
        <mxCell id="5T1NbQgIR6Mrxo33GEoN-11" style="edgeStyle=orthogonalEdgeStyle;rounded=0;orthogonalLoop=1;jettySize=auto;html=1;dashed=1;dashPattern=8 8;curved=1;" edge="1" parent="1" source="5T1NbQgIR6Mrxo33GEoN-9" target="5T1NbQgIR6Mrxo33GEoN-4">
          <mxGeometry relative="1" as="geometry" />
        </mxCell>
        <mxCell id="5T1NbQgIR6Mrxo33GEoN-12" value="&amp;lt;&amp;lt;include&amp;gt;&amp;gt;" style="edgeLabel;html=1;align=center;verticalAlign=middle;resizable=0;points=[];" vertex="1" connectable="0" parent="5T1NbQgIR6Mrxo33GEoN-11">
          <mxGeometry x="-0.0461" y="-1" relative="1" as="geometry">
            <mxPoint as="offset" />
          </mxGeometry>
        </mxCell>
        <mxCell id="5T1NbQgIR6Mrxo33GEoN-13" value="" style="endArrow=none;html=1;rounded=0;" edge="1" parent="1" source="5T1NbQgIR6Mrxo33GEoN-16" target="5T1NbQgIR6Mrxo33GEoN-3">
          <mxGeometry width="50" height="50" relative="1" as="geometry">
            <mxPoint x="1286" y="610" as="sourcePoint" />
            <mxPoint x="1336" y="560" as="targetPoint" />
          </mxGeometry>
        </mxCell>
        <mxCell id="5T1NbQgIR6Mrxo33GEoN-14" style="edgeStyle=orthogonalEdgeStyle;rounded=0;orthogonalLoop=1;jettySize=auto;html=1;exitX=1;exitY=0.5;exitDx=0;exitDy=0;curved=1;dashed=1;dashPattern=8 8;" edge="1" parent="1" source="5T1NbQgIR6Mrxo33GEoN-16" target="5T1NbQgIR6Mrxo33GEoN-26">
          <mxGeometry relative="1" as="geometry" />
        </mxCell>
        <mxCell id="5T1NbQgIR6Mrxo33GEoN-15" value="&amp;lt;&amp;lt;extend&amp;gt;&amp;gt;" style="edgeLabel;html=1;align=center;verticalAlign=middle;resizable=0;points=[];" vertex="1" connectable="0" parent="5T1NbQgIR6Mrxo33GEoN-14">
          <mxGeometry x="0.0844" y="8" relative="1" as="geometry">
            <mxPoint as="offset" />
          </mxGeometry>
        </mxCell>
        <mxCell id="5T1NbQgIR6Mrxo33GEoN-16" value="Crée un événement" style="ellipse;whiteSpace=wrap;html=1;" vertex="1" parent="1">
          <mxGeometry x="1140" y="490" width="120" height="80" as="geometry" />
        </mxCell>
        <mxCell id="5T1NbQgIR6Mrxo33GEoN-17" style="edgeStyle=orthogonalEdgeStyle;rounded=0;orthogonalLoop=1;jettySize=auto;html=1;entryX=0.5;entryY=1;entryDx=0;entryDy=0;dashed=1;dashPattern=8 8;" edge="1" parent="1" source="5T1NbQgIR6Mrxo33GEoN-16" target="5T1NbQgIR6Mrxo33GEoN-4">
          <mxGeometry relative="1" as="geometry">
            <mxPoint x="1266.96" y="529.8399999999999" as="targetPoint" />
          </mxGeometry>
        </mxCell>
        <mxCell id="5T1NbQgIR6Mrxo33GEoN-18" value="&amp;lt;&amp;lt;extend&amp;gt;&amp;gt;" style="edgeLabel;html=1;align=center;verticalAlign=middle;resizable=0;points=[];" vertex="1" connectable="0" parent="5T1NbQgIR6Mrxo33GEoN-17">
          <mxGeometry x="0.0433" y="1" relative="1" as="geometry">
            <mxPoint as="offset" />
          </mxGeometry>
        </mxCell>
        <mxCell id="5T1NbQgIR6Mrxo33GEoN-19" value="" style="edgeStyle=orthogonalEdgeStyle;rounded=0;orthogonalLoop=1;jettySize=auto;html=1;curved=1;dashed=1;dashPattern=8 8;exitX=0.087;exitY=0.312;exitDx=0;exitDy=0;exitPerimeter=0;" edge="1" parent="1" source="5T1NbQgIR6Mrxo33GEoN-21" target="5T1NbQgIR6Mrxo33GEoN-16">
          <mxGeometry relative="1" as="geometry" />
        </mxCell>
        <mxCell id="5T1NbQgIR6Mrxo33GEoN-20" value="&amp;lt;&amp;lt;include&amp;gt;&amp;gt;" style="edgeLabel;html=1;align=center;verticalAlign=middle;resizable=0;points=[];" vertex="1" connectable="0" parent="5T1NbQgIR6Mrxo33GEoN-19">
          <mxGeometry x="0.1354" relative="1" as="geometry">
            <mxPoint x="13" y="-5" as="offset" />
          </mxGeometry>
        </mxCell>
        <mxCell id="5T1NbQgIR6Mrxo33GEoN-21" value="Reçoit des points d&#39;expérience (organisateur)" style="ellipse;whiteSpace=wrap;html=1;" vertex="1" parent="1">
          <mxGeometry x="1310" y="590" width="120" height="80" as="geometry" />
        </mxCell>
        <mxCell id="5T1NbQgIR6Mrxo33GEoN-22" style="edgeStyle=orthogonalEdgeStyle;rounded=0;orthogonalLoop=1;jettySize=auto;html=1;exitX=1;exitY=0;exitDx=0;exitDy=0;entryX=0.059;entryY=0.671;entryDx=0;entryDy=0;entryPerimeter=0;curved=1;dashed=1;dashPattern=8 8;" edge="1" parent="1" source="5T1NbQgIR6Mrxo33GEoN-4" target="5T1NbQgIR6Mrxo33GEoN-10">
          <mxGeometry relative="1" as="geometry" />
        </mxCell>
        <mxCell id="5T1NbQgIR6Mrxo33GEoN-23" value="&amp;lt;&amp;lt;extend&amp;gt;&amp;gt;" style="edgeLabel;html=1;align=center;verticalAlign=middle;resizable=0;points=[];" vertex="1" connectable="0" parent="5T1NbQgIR6Mrxo33GEoN-22">
          <mxGeometry x="-0.3258" y="18" relative="1" as="geometry">
            <mxPoint as="offset" />
          </mxGeometry>
        </mxCell>
        <mxCell id="5T1NbQgIR6Mrxo33GEoN-24" value="Reçoit des points d&#39;expérience (utilisateur et organisateur)" style="ellipse;whiteSpace=wrap;html=1;" vertex="1" parent="1">
          <mxGeometry x="1440" y="290" width="140" height="80" as="geometry" />
        </mxCell>
        <mxCell id="5T1NbQgIR6Mrxo33GEoN-25" value="Modifier un événement" style="ellipse;whiteSpace=wrap;html=1;" vertex="1" parent="1">
          <mxGeometry x="1340" y="390" width="120" height="80" as="geometry" />
        </mxCell>
        <mxCell id="5T1NbQgIR6Mrxo33GEoN-26" value="Supprimer un événement" style="ellipse;whiteSpace=wrap;html=1;" vertex="1" parent="1">
          <mxGeometry x="1340" y="490" width="120" height="80" as="geometry" />
        </mxCell>
        <mxCell id="5T1NbQgIR6Mrxo33GEoN-27" style="edgeStyle=orthogonalEdgeStyle;rounded=0;orthogonalLoop=1;jettySize=auto;html=1;entryX=0.785;entryY=0.108;entryDx=0;entryDy=0;entryPerimeter=0;curved=1;dashed=1;dashPattern=8 8;" edge="1" parent="1" source="5T1NbQgIR6Mrxo33GEoN-25" target="5T1NbQgIR6Mrxo33GEoN-16">
          <mxGeometry relative="1" as="geometry" />
        </mxCell>
        <mxCell id="5T1NbQgIR6Mrxo33GEoN-28" value="&amp;lt;&amp;lt;include&amp;gt;&amp;gt;" style="edgeLabel;html=1;align=center;verticalAlign=middle;resizable=0;points=[];" vertex="1" connectable="0" parent="5T1NbQgIR6Mrxo33GEoN-27">
          <mxGeometry x="-0.254" y="10" relative="1" as="geometry">
            <mxPoint as="offset" />
          </mxGeometry>
        </mxCell>
      </root>
    </mxGraphModel>
  </diagram>
</mxfile>
